 <svg viewBox="0 0 60 60" xmlns="http://www.w3.org/2000/svg">
              <g fill="currentColor" fillRule="nonzero">
                <path d="M15.68 23.94a1 1 0 001.27-.62A3.44 3.44 0 0120 21a1 1 0 000-2c-3.68 0-4.9 3.53-4.95 3.68a1 1 0 00.63 1.26zM40 21c1.4.08 2.6 1 3.05 2.32a1 1 0 001.9-.64C44.9 22.53 43.68 19 40 19a1 1 0 000 2z" />
                <path d="M1.27 51.44A6.27 6.27 0 006.17 54a5.15 5.15 0 003.79-1.65 30.07 30.07 0 0040.02.06 5.15 5.15 0 004.69 1.66 6.39 6.39 0 005.27-7.09 5.25 5.25 0 00-3.1-4.09A26.12 26.12 0 0059 32.5c0-11.66-7.7-21.97-19.23-25.87-.1-.43-.23-.86-.4-1.27a8.65 8.65 0 00-3.48-3.85A11.42 11.42 0 0022.7 2.79a8.42 8.42 0 00-2.37 3.8C8.74 10.48 1 20.81 1 32.5c0 3.53.72 7.03 2.1 10.28-.35.15-.68.35-1 .58a5.77 5.77 0 00-.83 8.08zM56.7 45.1c.7.53 1.15 1.31 1.26 2.18a4.4 4.4 0 01-3.6 4.82 3.24 3.24 0 01-2.95-1.07 27.6 27.6 0 004.57-6.32c.26.1.5.23.72.4zM19.98 8.83a11.42 11.42 0 003.2 7.8 17.3 17.3 0 003.96 3.18A9.24 9.24 0 0030.75 21a1 1 0 00.13-2 7.32 7.32 0 01-2.72-.91 15.33 15.33 0 01-3.96-3.34c-2.37-2.9-3.42-7.42-.14-10.5a9.47 9.47 0 0110.79-1.03c1.17.68 2.1 1.7 2.68 2.94a4.15 4.15 0 01-1.07 5.1c-2.2 1.72-6.27 1.67-8.72-.1-1.25-.9-2.36-2.36-1.74-3.75.78-1.76 3.89-2.26 6.04-1.52.5.12.91.46 1.12.93a1 1 0 001.95-.45 3.5 3.5 0 00-2.42-2.38c-3.08-1.05-7.24-.26-8.52 2.6-.9 2.05.03 4.48 2.4 6.19 3.21 2.32 8.2 2.35 11.12.06a5.82 5.82 0 002.22-4.03C50.18 12.62 57 21.97 57 32.5 57 46.56 44.89 58 30 58S3 46.56 3 32.5C3 22 9.77 12.68 19.98 8.84zM3.3 44.97c.2-.15.43-.27.66-.37a27.62 27.62 0 004.57 6.37 3.25 3.25 0 01-2.9 1c-1.1-.18-2.1-.8-2.75-1.7a3.77 3.77 0 01.42-5.3z" />
                <path d="M26.97 32.98a1 1 0 001.03-.95c.01-.17.16-1.03 2-1.03s1.99.86 2 1a1 1 0 002 0c0-1.04-.84-3-4-3s-4 1.96-4 3c0 .54.43.97.97.98zM17.2 27.4a.98.98 0 00.18 1.36c.43.33 1.04.28 1.4-.13A3 3 0 0121 28c.78-.09 1.57.13 2.2.6a1 1 0 101.6-1.2c-.1-.14-1.13-1.4-3.8-1.4s-3.7 1.26-3.8 1.4zM36.77 28.63A3 3 0 0139 28c.78-.09 1.57.13 2.2.6a1 1 0 001.6-1.2c-.1-.14-1.13-1.4-3.8-1.4s-3.7 1.26-3.8 1.4a.98.98 0 00.18 1.36c.43.33 1.04.28 1.4-.13zM29.93 56a23.42 23.42 0 0015.75-6c3.39-3.26 4.82-9.4 1.22-13.62a6.52 6.52 0 00-6.44-2.1c-1.02.27-2.02.63-2.98 1.08-.73.34-1.48.63-2.24.87-1.72.5-3.5.75-5.3.77-1.8-.02-3.59-.28-5.32-.77a18.4 18.4 0 01-2.24-.87c-.95-.45-1.95-.81-2.98-1.08a6.53 6.53 0 00-6.43 2.1c-3.6 4.23-2.18 10.36 1.21 13.62a23.42 23.42 0 0015.75 6zm0-2a21.96 21.96 0 01-5.4-.71 6.7 6.7 0 015.4-2.29 6.7 6.7 0 015.4 2.29c-1.77.46-3.58.7-5.4.71zm2-15.12V40a1 1 0 01-1 1h-2a1 1 0 01-1-1v-1.12c.67.07 1.34.12 2 .12s1.34-.05 2-.12zm-17.45-1.2a4.48 4.48 0 014.47-1.45c.9.24 1.79.56 2.63.97.8.37 1.64.69 2.49.95.61.18 1.23.32 1.86.44V40a3 3 0 003 3h2a3 3 0 003-3v-1.41c.62-.13 1.25-.26 1.86-.44.85-.26 1.68-.58 2.49-.95.84-.4 1.72-.73 2.63-.97a4.53 4.53 0 014.47 1.45c2.84 3.34 1.65 8.25-1.09 10.88a19.46 19.46 0 01-6.97 4.12C36.1 50.48 33.24 49 29.93 49s-6.18 1.47-7.39 3.68a19.46 19.46 0 01-6.97-4.12c-2.74-2.63-3.93-7.54-1.09-10.88z" />
              </g>
            </svg>