 <svg viewBox="0 0 24 24" xmlns="http://www.w3.org/2000/svg">
              <path
                d="M17.23 18.63H6.69a.75.75 0 01-.75-.76 14.3 14.3 0 012.88-8.44l-2.95.25a1.72 1.72 0 01-1.85-1.7V7.1c0-1.19.8-2.24 1.94-2.57l5.02-1.6V.76a.75.75 0 011.2-.6l2.23 1.67a7.8 7.8 0 012.94 9.73 5.76 5.76 0 00.12 5.13l.43.86a.75.75 0 01-.67 1.1z"
                fill="#eceff1"
              />
              <path
                d="M19.25 21.5H4.75a.75.75 0 01-.75-.75V19.5c0-.94.75-2 1.75-2h12.5c1 0 1.75 1.06 1.75 2v1.25c0 .41-.34.75-.75.75z"
                fill="#cfd8dc"
              />
              <path
                d="M21.25 24H2.75a.75.75 0 01-.75-.75v-1.5c0-.96.79-1.75 1.75-1.75h16.5c.96 0 1.75.79 1.75 1.75v1.5c0 .41-.34.75-.75.75z"
                fill="#eceff1"
              />
              <path d="M17.23 18.63a.75.75 0 01-.67-.41l-.43-.86a7.3 7.3 0 01-.15-6.41 6.32 6.32 0 00-2.42-7.9l-1.08-.8V3.5c0 .32-.21.61-.52.71L6.39 5.98c-.52.15-.87.61-.87 1.13v.87c0 .07.04.12.07.15a.2.2 0 00.16.05l4.7-.4c.32-.01.6.15.74.42s.1.6-.1.83l-.3.33a13.02 13.02 0 00-3.35 8.53c-.01.42-.34.78-.77.74a.75.75 0 01-.73-.76 14.3 14.3 0 012.88-8.44l-2.95.25a1.71 1.71 0 01-1.85-1.7V7.1c0-1.19.8-2.24 1.94-2.57l5.02-1.6V.76a.75.75 0 011.2-.6l2.23 1.67a7.8 7.8 0 012.94 9.73 5.76 5.76 0 00.12 5.13l.43.86a.75.75 0 01-.67 1.1z" />
              <path d="M13.51 19a.77.77 0 01-.35-.08c-.14-.07-1.41-.78-1.41-3.42 0-1.48.5-2.45 1-3.39.51-1 1-1.94 1-3.61a.75.75 0 011.5 0c0 2.04-.62 3.24-1.18 4.3-.44.85-.82 1.6-.82 2.7 0 1.67.61 2.1.62 2.1.37.18.5.62.32 1-.13.25-.4.4-.68.4zM21.25 24H2.75a.75.75 0 01-.75-.75v-1.5c0-.96.79-1.75 1.75-1.75h16.5c.96 0 1.75.79 1.75 1.75v1.5c0 .41-.34.75-.75.75zM3.5 22.5h17v-.75a.25.25 0 00-.25-.25H3.75a.25.25 0 00-.25.25z" />
              <path d="M19.25 21.5H4.75a.75.75 0 01-.75-.75V19.5c0-.94.75-2 1.75-2h12.5c1 0 1.75 1.06 1.75 2v1.25c0 .41-.34.75-.75.75zM5.5 20h13v-.5c0-.2-.17-.47-.27-.5H5.75c-.08.03-.25.3-.25.5z" />
            </svg>