 <svg viewBox="0 0 496 496" xmlns="http://www.w3.org/2000/svg">
              <path d="M132 193C59.22 193 0 252.23 0 325s59.22 132 132 132 132-59.2 132-132-59.22-132-132-132zm-4.55 113.51l19.54 6.74c37.85 13.06 39.07 66.83 1.01 81.07 0 10.22-7.64 16.69-16 16.69-8.28 0-16-6.37-16-16.69a43.14 43.14 0 01-28.02-40.35 16 16 0 1132 0c0 6.1 4.97 11.07 11.07 11.07h1.9c12.49 0 15.33-17.5 3.6-21.54l-19.54-6.73C79.16 323.7 77.94 269.94 116 255.7c0-10.23 7.64-16.7 16-16.7 8.28 0 16 6.38 16 16.7a43.14 43.14 0 0128.02 40.35 16 16 0 11-32 0c0-6.1-4.97-11.07-11.07-11.07h-1.9c-12.49 0-15.33 17.5-3.6 21.53zM496 441.01a16 16 0 01-16 16H256a16 16 0 110-32h68V225a16 16 0 1132 0v200h81V161a16 16 0 1132 0v264h11a16 16 0 0116 16zM223.69 188.7l68.5-68.5a16 16 0 0122.62 0L340 145.38l74.37-74.37H407a16 16 0 110-32c49.58 0 46.92-.13 49.12.3A16.04 16.04 0 01469 55.02v46a16 16 0 11-32 0v-7.37l-85.69 85.68a16 16 0 01-22.62 0l-25.19-25.18-57.19 57.18a15.95 15.95 0 01-11.31 4.69c-14.12 0-21.42-17.2-11.31-27.31z" />
            </svg>