 <svg
            xmlns="http://www.w3.org/2000/svg"
            fill="currentColor"
            viewBox="0 0 512 512"
          >
            <path d="M10.69 95.16C80.96 154.66 204.26 259.36 240.5 292c4.87 4.4 10.08 6.65 15.5 6.65 5.4 0 10.62-2.22 15.47-6.6 36.27-32.68 159.57-137.4 229.84-196.9a10.66 10.66 0 001.5-14.72A42.36 42.36 0 00469.33 64H42.67A42.36 42.36 0 009.19 80.44a10.66 10.66 0 001.5 14.72z" />
            <path d="M505.81 127.4a10.62 10.62 0 00-11.37 1.55C416.5 195 317.05 279.69 285.76 307.89c-17.56 15.85-41.94 15.85-59.54-.03-33.36-30.05-145.04-125-208.66-178.91A10.67 10.67 0 000 137.08v268.25A42.7 42.7 0 0042.67 448h426.66A42.7 42.7 0 00512 405.33V137.08c0-4.15-2.42-7.93-6.19-9.67z" />
          </svg>