

 <svg
            xmlns="http://www.w3.org/2000/svg"
            fill="currentColor"
            viewBox="0 0 469.33 469.33"
          >
            <path d="M234.67 170.67c-35.31 0-64 28.69-64 64s28.69 64 64 64 64-28.7 64-64-28.7-64-64-64z" />
            <path d="M234.67 74.67C128 74.67 36.9 141 0 234.67c36.9 93.65 128 160 234.67 160 106.77 0 197.76-66.35 234.66-160-36.9-93.66-127.89-160-234.66-160zm0 266.66c-58.88 0-106.67-47.78-106.67-106.66S175.79 128 234.67 128s106.66 47.79 106.66 106.67-47.78 106.66-106.66 106.66z" />
          </svg>