 <svg viewBox="0 0 509.52 509.52" xmlns="http://www.w3.org/2000/svg">
              <path d="M493.8 309.4A62.23 62.23 0 00439 292.2l-13.21 2.33-3.8-12.87C400.5 208.61 332.23 157.6 256 157.6S111.52 208.61 90 281.65l-3.79 12.87-13.2-2.33a62.22 62.22 0 00-54.82 17.22C6.46 321.14 0 336.74 0 353.33s6.46 32.19 18.2 43.92 27.32 18.2 43.92 18.2c16.59 0 32.19-6.46 43.92-18.2a62.64 62.64 0 008.12-10l12.55-19.2 12.56 19.2a62.69 62.69 0 008.12 10 61.71 61.71 0 0043.92 18.2c16.6 0 32.19-6.46 43.92-18.2a62.64 62.64 0 008.12-10l12.56-19.2 12.55 19.2a62.71 62.71 0 008.12 10c11.73 11.73 27.33 18.2 43.92 18.2s32.2-6.47 43.93-18.2a62.62 62.62 0 008.19-10.11l12.57-19.34 12.58 19.34a62.6 62.6 0 008.19 10.11c11.73 11.73 27.33 18.2 43.92 18.2s32.2-6.47 43.93-18.2S512 369.92 512 353.33s-6.46-32.2-18.2-43.93zm-276.1.6h-30v-28.67h30zm53.3-48.45h-30V232.9h30zM324.3 310h-30v-28.67h30zM385.2 418.9c-35.78 35.3-93.48 35.33-129.3.1-35.77 35.2-93.4 35.2-129.19 0-25.22 24.82-61.3 32.11-92.94 21.94l10.31 35.14A50.27 50.27 0 0092.06 512h327.88a50.27 50.27 0 0047.98-35.92L478.2 441a92.3 92.3 0 01-28.33 4.45 91.5 91.5 0 01-64.69-26.54zM143.52 131.66h30c0-7.86 2.68-11.1 7.56-16.96 6.1-7.36 14.47-17.44 14.47-36.12 0-18.69-8.37-28.77-14.47-36.12-4.88-5.88-7.56-9.1-7.56-16.97h-30c0 18.69 8.36 28.77 14.47 36.12 4.87 5.87 7.56 9.1 7.56 16.97 0 7.85-2.69 11.09-7.56 16.96-6.1 7.36-14.47 17.43-14.47 36.12zM229.99 106.17h30c0-7.86 2.68-11.1 7.55-16.97 6.11-7.35 14.47-17.43 14.47-36.12 0-18.68-8.36-28.76-14.47-36.12C262.67 11.1 260 7.86 260 0h-30c0 18.68 8.36 28.76 14.47 36.12 4.87 5.87 7.55 9.1 7.55 16.96 0 7.86-2.68 11.1-7.55 16.96-6.1 7.36-14.47 17.44-14.47 36.13zM316.45 131.66h30c0-7.86 2.69-11.1 7.56-16.96 6.1-7.36 14.47-17.44 14.47-36.12 0-18.69-8.36-28.77-14.47-36.12-4.87-5.88-7.56-9.1-7.56-16.97h-30c0 18.69 8.37 28.77 14.47 36.12 4.88 5.87 7.56 9.1 7.56 16.97 0 7.85-2.68 11.09-7.56 16.96-6.1 7.36-14.47 17.43-14.47 36.12z" />
            </svg>