<svg
              xmlns="http://www.w3.org/2000/svg"
              fill="currentColor"
              viewBox="0 0 448 448"
            >
              <path d="M234.67 138.67v106.66l91.3 54.19 15.36-25.92-74.66-44.27v-90.66z" />
              <path d="M255.9 32C149.75 32 64 117.97 64 224H0l83.1 83.1 1.49 3.09L170.67 224h-64c0-82.45 66.88-149.33 149.33-149.33S405.33 141.55 405.33 224 338.45 373.33 256 373.33c-41.28 0-78.5-16.85-105.5-43.84l-30.18 30.19A190.78 190.78 0 00255.89 416C362.03 416 448 330.03 448 224S362.03 32 255.9 32z" />
            </svg>