<svg
              xmlns="http://www.w3.org/2000/svg"
              fill="currentColor"
              viewBox="0 0 512 512"
            >
              <path d="M53.33 224A53.4 53.4 0 000 277.33V448a53.4 53.4 0 0053.33 53.33h64a52.95 52.95 0 0032-10.8V224h-96zM512 304a47.3 47.3 0 00-13.89-33.58 52.97 52.97 0 0013.66-40.72c-2.5-27.12-26.93-48.37-55.64-48.37H324.35c6.53-19.82 16.98-56.15 16.98-85.33 0-46.27-39.31-85.33-64-85.33-22.16 0-38 12.48-38.67 12.99a10.72 10.72 0 00-4 8.34v72.34l-61.43 133.1-2.56 1.3V467.4C188.03 475.6 210 480 224 480h195.82c23.23 0 43.56-15.66 48.34-37.27a47.99 47.99 0 00-3.86-32.04 47.78 47.78 0 0021.35-64.02A47.76 47.76 0 00512 304z" />
            </svg>