  <svg xmlns="http://www.w3.org/2000/svg" viewBox="0 0 444.27 444.27">
              <path d="M380.15 230.22a64.08 64.08 0 00-52.7 27.67l-16.7-7.15v-10.46l52.28-21.7 13.42-30.93h6.17l30.93 36.72a6.02 6.02 0 109.23-7.77l-24.38-28.95h3.88a6.03 6.03 0 100-12.07h-9.07l7.9-3.74a7.54 7.54 0 003.6-10l-4.54-9.8a7.54 7.54 0 00-6.77-4.37l-83.7-.75h-.08c-2.09 0-4.09.87-5.52 2.4-.15.16-17.25 17.87-48.8 21.98a70.95 70.95 0 00-10.45-14.59c-12.13-13-28.07-19.89-46.1-19.89-3.65 0-7.44.28-11.27.84l-.06.01c-.89.14-21.94 3.41-51.1 11.59-.31.01-.77.03-1.33.03-3.35 0-11.47-.6-14.63-6.12-.23-.4-.45-.86-.65-1.38l13.94-2.53a7.17 7.17 0 00-2.56-14.1l-11.23 2.04c1.72-7.1 5.62-16.8 13.38-30.02a7.54 7.54 0 00-9.17-10.88c-.84.32-20.69 7.95-38.7 26.77a102.14 102.14 0 00-27.6 56.06c1.03-1.99 2.3-3.92 3.9-5.73 0 0 20.58 13.44 8.96 32.9H57c.32 3.95.83 8.03 1.56 12.24a7.55 7.55 0 002.33 4.27l16.84 15.48c-55.38-7.43-75.3 28.52-75.3 28.52-4.16 5.53-2.07 11.49 4.64 8.32A63.7 63.7 0 000 294.33a64.19 64.19 0 0064.11 64.12 64.19 64.19 0 0063.63-71.86h78.34l-30.92-23.06s-36.7 3.55-62.88-24.94c2.74-.14 5.73-.23 8.9-.23 21.23 0 50.79 3.82 71.01 22.02.27.24.54.46.83.65l69.4 46.77a7.52 7.52 0 009.55-.92l27.95-27.96 16.67 7.14a64.18 64.18 0 00-.55 8.27 64.19 64.19 0 0064.11 64.12c35.36 0 64.12-28.76 64.12-64.12s-28.76-64.11-64.12-64.11zm-69.39-15.55l47.24-22.4-6.38 14.72-40.86 16.96v-9.28zM64.11 328.27c-18.71 0-33.94-15.22-33.94-33.94a33.98 33.98 0 0136.29-33.85l-14.04 28.95 27.14 13.17 12.99-26.77a33.73 33.73 0 015.5 18.5 33.98 33.98 0 01-33.94 33.95zm316.04 0a33.99 33.99 0 01-33.63-29.4l25.68 11 11.88-27.73-27.8-11.9a33.83 33.83 0 0123.87-9.85c18.72 0 33.94 15.23 33.94 33.94s-15.22 33.95-33.94 33.95z" />
            </svg>