 <svg xmlns="http://www.w3.org/2000/svg" viewBox="0 0 415.96 415.96">
              <path d="M328.71 264.54c12.93-21.63 21.5-49 23.17-76.07 1.06-17.37-2.82-35.61-11.2-52.76-13.15-26.95-35.74-42.08-57.57-56.7-16.29-10.92-31.68-21.22-42.56-35.94l-1.95-2.63c-6.43-8.64-13.7-18.43-14.85-26.65C222.6 5.47 215.05-.45 206.8.03a15.96 15.96 0 00-14.88 15.93v285.12c-13.4-8.13-29.92-13.12-48-13.12-44.1 0-80 28.7-80 64s35.9 64 80 64 80-28.7 80-64v-186.5c24.03 9.2 63.36 32.58 74.18 87.2-2.02 2.98-3.94 6.18-6.18 8.74a15.94 15.94 0 001.44 22.56 15.94 15.94 0 0022.56-1.44c4.29-4.86 8.1-10.56 11.75-16.5.38-.46.73-.94 1.05-1.48z" />
            </svg>