 <svg
            viewBox="0 0 512 512"
            fill="currentColor"
            xmlns="http://www.w3.org/2000/svg"
          >
            <path d="M453.3 85.3a69.3 69.3 0 11-138.6 0 69.3 69.3 0 01138.6 0zm0 0" />
            <path d="M384 170.7a85.4 85.4 0 11.2-170.9 85.4 85.4 0 01-.2 170.9zM384 32a53.4 53.4 0 10.1 106.8A53.4 53.4 0 00384 32zm0 0M453.3 426.7a69.3 69.3 0 11-138.6 0 69.3 69.3 0 01138.6 0zm0 0" />
            <path d="M384 512a85.4 85.4 0 11.2-170.8A85.4 85.4 0 01384 512zm0-138.7a53.4 53.4 0 10.1 106.8 53.4 53.4 0 00-.1-106.8zm0 0M154.7 256A69.3 69.3 0 1116 256a69.3 69.3 0 01138.7 0zm0 0" />
            <path d="M85.3 341.3a85.4 85.4 0 11.2-170.8 85.4 85.4 0 01-.2 170.8zm0-138.6a53.4 53.4 0 10.2 106.8 53.4 53.4 0 00-.2-106.8zm0 0" />
            <path d="M135.7 245.8a21.3 21.3 0 01-10.6-40L323.1 93a21.3 21.3 0 1121 37.1L146.3 243c-3.3 1.9-7 2.8-10.5 2.8zm0 0M333.6 421.8c-3.6 0-7.2-1-10.5-2.8L125 306a21.4 21.4 0 0121.2-37l198 112.8a21.4 21.4 0 01-10.7 39.9zm0 0" />
          </svg>