 <svg viewBox="0 0 512 512" xmlns="http://www.w3.org/2000/svg">
              <path d="M256 0C114.84 0 0 114.84 0 256s114.84 256 256 256 256-114.84 256-256S397.16 0 256 0zm0 482C131.38 482 30 380.62 30 256S131.38 30 256 30s226 101.38 226 226-101.38 226-226 226zm0 0" />
              <path d="M330.88 186.27a52.8 52.8 0 0137.59-15.57c14.2 0 27.54 5.53 37.6 15.57a15 15 0 1021.2-21.22 82.63 82.63 0 00-58.8-24.35 82.63 82.63 0 00-58.8 24.35h-.01a15 15 0 1021.22 21.22zm0 0M105.95 186.27a52.82 52.82 0 0137.58-15.57c14.2 0 27.55 5.53 37.6 15.57a15 15 0 1021.2-21.22 82.63 82.63 0 00-58.8-24.35 82.63 82.63 0 00-58.8 24.35 15 15 0 1021.22 21.22zm0 0M416.67 243H95.33a15 15 0 00-15 15c0 97.02 78.65 175.67 175.67 175.67S431.67 355.02 431.67 258a15 15 0 00-15-15zM256 403.67c-75.95 0-137.5-57.77-144.91-130.67h289.82C393.5 345.9 331.96 403.67 256 403.67zm0 0" />
            </svg>