 <svg
              viewBox="0 0 512.07 512.07"
              fill="currentColor"
              xmlns="http://www.w3.org/2000/svg"
            >
              <path d="M509.76 194.64c-6.15-18.86-22.95-31.04-42.78-31.04H339.06L298.78 41.27c-6.2-18.8-22.95-30.93-42.73-30.93h-.2c-19.85.08-36.6 12.35-42.67 31.26l-39.1 122H45.09c-19.88 0-36.69 12.22-42.81 31.14-6.12 18.92.33 38.68 16.45 50.33L123.1 320.5l-40.17 122c-6.21 18.87.14 38.65 16.18 50.39a44.86 44.86 0 0026.56 8.84c9.17 0 18.35-2.9 26.37-8.7l104.54-75.56 103.3 75.44c16.03 11.7 36.78 11.76 52.87.15s22.58-31.33 16.52-50.23L390.04 320.5l103.48-75.56c16.02-11.7 22.4-31.44 16.24-50.3z" />
            </svg>