 <svg
          xmlns="http://www.w3.org/2000/svg"
          stroke="currentColor"
          viewBox="0 0 512.06 512.06"
        >
          <path d="M426.63 188.22C402.97 93.95 307.37 36.7 213.08 60.37A176 176 0 0080.39 218.3a96 96 0 0016 190.72h80v-32h-80a64 64 0 010-128 16 16 0 0016-16c-.08-79.53 64.33-144.06 143.86-144.14a144 144 0 01141.42 116.14 16 16 0 0013.6 12.8 80 80 0 01-10.88 159.2h-64v32h64c61.86-.18 111.85-50.48 111.66-112.34a112 112 0 00-85.41-108.46z" />
          <path d="M245.03 253.66l-64 64 22.56 22.56 36.8-36.64v153.44h32V303.58l36.64 36.64 22.56-22.56-64-64a16 16 0 00-22.55 0z" />
        </svg>