 <svg
            xmlns="http://www.w3.org/2000/svg"
            viewBox="0 0 469.33 469.33"
            fill="currentColor"
          >
            <path d="M320 213.33c35.3 0 63.79-28.69 63.79-64 0-35.3-28.48-64-63.79-64-35.3 0-64 28.7-64 64 0 35.31 28.7 64 64 64zM149.33 213.33c35.31 0 63.79-28.69 63.79-64 0-35.3-28.48-64-63.79-64-35.3 0-64 28.7-64 64 0 35.31 28.7 64 64 64zM149.33 256C99.52 256 0 280.96 0 330.67V384h298.67v-53.33c0-49.71-99.52-74.67-149.34-74.67zM320 256c-6.19 0-13.12.43-20.59 1.17 24.75 17.82 41.92 41.82 41.92 73.5V384h128v-53.33c0-49.71-99.52-74.67-149.33-74.67z" />
          </svg>