 <svg
            xmlns="http://www.w3.org/2000/svg"
            fill="currentColor"
            viewBox="0 0 411.14 411.14"
          >
            <path d="M350.2 54.53H61.45C27.64 54.53 0 82.18 0 115.97v179.2c0 33.8 27.65 61.44 61.44 61.44H349.7c33.79 0 61.44-27.65 61.44-61.44v-179.2c.5-33.8-27.14-61.44-60.93-61.44zM287.75 210.7a11.96 11.96 0 01-3.58 3.59l-119.3 70.65a9.93 9.93 0 01-13.82-3.58 8.65 8.65 0 01-1.54-5.12V134.92c0-5.64 4.61-10.24 10.24-10.24 1.54 0 3.59.5 5.12 1.53l119.3 70.66c4.6 3.07 6.66 9.21 3.58 13.82z" />
          </svg>