 <svg
          xmlns="http://www.w3.org/2000/svg"
          viewBox="0 0 56 50"
          fill="currentColor"
        >
          <path
            d="M5.03 12h-5v38h56V12h-5zm31.999 20.262l-12.951 7.521a2.02 2.02 0 01-2.04.004 1.984 1.984 0 01-1.008-1.735V23.01c0-.724.377-1.372 1.008-1.735a2.047 2.047 0 012.04.003L37.029 28.8a1.983 1.983 0 011.001 1.731c0 .719-.374 1.366-1.001 1.731z"
            data-original="#000000"
            className="active-path"
          />
          <path
            d="M23.03 38.051v.004l12.994-7.524-12.951-7.525zM12.03 0h32v4h-32zM50.03 6h-44v4h44z"
            data-original="#000000"
            className="active-path"
          />
        </svg>